<svg width="107" height="55" viewBox="0 0 107 55" fill="none" xmlns="http://www.w3.org/2000/svg">
<path d="M16.2421 7.1071C16.3506 7.10672 16.4591 7.10634 16.5708 7.10595C16.9288 7.1051 17.2867 7.10652 17.6447 7.10804C17.8943 7.10809 18.1439 7.10804 18.3935 7.10788C18.9167 7.10789 19.4398 7.10897 19.963 7.11086C20.6317 7.11321 21.3005 7.11328 21.9692 7.11257C22.4848 7.11223 23.0005 7.11292 23.5161 7.11394C23.7625 7.11434 24.009 7.11446 24.2554 7.1143C24.601 7.11426 24.9465 7.11558 25.2921 7.11726C25.3929 7.117 25.4937 7.11675 25.5975 7.11648C27.1501 7.12847 27.1501 7.12847 27.7494 7.53615C27.9514 7.851 28.0041 8.01652 28.0041 8.39482C27.7731 9.14075 27.3923 9.79298 26.9788 10.4504C25.4969 12.8735 25.0012 15.2354 24.53 18.0116C24.4625 18.4081 24.394 18.8045 24.3257 19.2009C24.1986 19.9389 24.0724 20.6772 23.9467 21.4155C23.8558 21.9498 23.7645 22.484 23.673 23.0183C23.4112 24.5477 23.1511 26.0774 22.893 27.6075C22.7533 28.4361 22.6129 29.2646 22.4719 30.0931C22.3629 30.7338 22.2543 31.3746 22.1461 32.0155C22.0813 32.3987 22.0164 32.7818 21.951 33.1648C21.8789 33.5872 21.8077 34.0096 21.7366 34.4321C21.7151 34.5571 21.6936 34.6821 21.6715 34.8109C21.5765 35.3802 21.4985 35.9194 21.5256 36.4967C21.6442 36.5374 21.7628 36.5782 21.885 36.6202C25.0921 37.7233 28.2788 38.8585 31.4242 40.1273C31.8666 40.3055 32.3112 40.4749 32.7585 40.6404C33.2293 40.8174 33.6562 41.031 34.0851 41.293C34.2849 41.4121 34.2849 41.4121 34.5871 41.3885C34.5871 41.4572 34.5871 41.5259 34.5871 41.5967C34.6432 41.6132 34.6992 41.6297 34.7569 41.6467C34.8388 41.671 34.9207 41.6952 35.0051 41.7203C35.1009 41.7486 35.1966 41.7769 35.2953 41.806C35.5349 41.8792 35.7734 41.9557 36.0112 42.0345C39.9413 43.3316 44.1746 43.0363 47.8837 41.1933C48.3139 40.9751 48.7338 40.7423 49.1503 40.4993C49.2258 40.4557 49.3012 40.412 49.379 40.3669C49.5237 40.2825 49.6675 40.1965 49.8102 40.1089C50.1074 39.9339 50.312 39.826 50.6614 39.8342C50.8879 39.9314 50.8879 39.9314 51.0969 40.2436C50.9183 43.2295 48.6186 46.4444 46.5123 48.453C44.3396 50.313 41.5388 50.7049 38.7762 50.5147C35.7529 50.2732 32.9513 49.3105 30.2293 48.0063C29.5765 47.6939 28.9209 47.3873 28.2653 47.0804C28.1954 47.0477 28.1254 47.0149 28.0534 46.9811C23.5093 44.6653 23.5093 44.6653 18.5998 43.5742C18.4904 43.5688 18.3811 43.5635 18.2684 43.5579C16.1719 43.5042 13.9401 43.939 12.0229 44.7906C11.5792 44.9803 11.3458 44.9887 10.8674 44.9272C10.4687 44.6484 10.3613 44.4959 10.2731 44.0165C10.2623 43.9049 10.2515 43.7933 10.2404 43.6783C10.1715 43.6439 10.1025 43.6096 10.0315 43.5742C9.98865 43.3326 9.95504 43.0894 9.92696 42.8456C9.90905 42.75 9.89113 42.6543 9.87268 42.5557C9.81755 42.1884 9.80862 41.8379 9.80941 41.4666C9.80914 41.3394 9.80887 41.2122 9.80859 41.0811C9.82247 40.764 9.82247 40.764 9.92696 40.5558C9.99593 40.5558 10.0649 40.5558 10.1359 40.5558C10.1633 40.4943 10.1907 40.4327 10.2189 40.3693C10.3517 40.1271 10.4875 39.9809 10.6898 39.7939C12.7782 37.8216 12.9869 35.4273 13.4654 32.6827C13.5115 32.4214 13.5576 32.1601 13.6037 31.8988C13.6995 31.3558 13.7947 30.8127 13.8895 30.2695C13.9988 29.6434 14.1091 29.0176 14.2199 28.3918C14.3273 27.7849 14.434 27.178 14.5404 26.5709C14.5854 26.3144 14.6306 26.0579 14.676 25.8014C14.7391 25.4442 14.8014 25.0869 14.8635 24.7295C14.8823 24.6245 14.901 24.5194 14.9203 24.4112C15.0105 23.8864 15.0679 23.3945 15.0471 22.8621C15.116 22.8621 15.185 22.8621 15.2561 22.8621C15.2627 22.7657 15.2627 22.7657 15.2695 22.6674C15.3428 21.7418 15.5029 20.8342 15.6655 19.9209C15.7017 19.7169 15.737 19.5128 15.7724 19.3087C15.7936 19.189 15.8148 19.0693 15.8367 18.9459C15.8923 18.5905 15.8923 18.5905 15.8769 18.2119C15.8831 17.8604 15.9312 17.7481 16.092 17.4499C16.1503 17.1885 16.2012 16.9309 16.2459 16.6672C16.2593 16.5907 16.2726 16.5141 16.2864 16.4352C16.3146 16.2728 16.3424 16.1103 16.3699 15.9478C16.4112 15.7046 16.4541 15.4617 16.4971 15.2188C16.9038 13.3907 16.9038 13.3907 16.6712 11.6099C16.343 11.2094 15.901 10.9223 15.4834 10.6204C14.8571 10.1523 14.4537 9.66692 14.2111 8.91523C14.1504 8.35024 14.2389 7.95132 14.5246 7.45809C15.0781 7.0824 15.5976 7.10205 16.2421 7.1071Z" fill="#328188"/>
<path d="M84.3515 14.256C84.5454 14.2613 84.5454 14.2613 84.7432 14.2668C86.2958 14.3246 86.2958 14.3246 86.8267 14.6658C87.0929 15.1025 87.049 15.5897 86.9714 16.0755C86.9532 16.1929 86.9349 16.3102 86.9161 16.4312C86.8953 16.5578 86.8746 16.6844 86.8532 16.8149C86.8321 16.9484 86.8111 17.0819 86.7893 17.2194C86.7321 17.5813 86.6737 17.943 86.6149 18.3047C86.5662 18.6059 86.5182 18.9073 86.4703 19.2086C86.153 21.2012 85.8233 23.1916 85.4881 25.1812C85.1857 26.9736 85.1857 26.9736 84.9001 28.7688C84.875 28.9256 84.875 28.9256 84.8494 29.0856C84.6125 30.4568 84.6125 30.4568 85.0569 31.709C85.5916 32.1031 86.4111 31.9697 87.0422 31.9172C88.0572 31.6615 88.9879 31.0362 89.55 30.1478C89.6325 29.8648 89.7011 29.592 89.7603 29.3043C89.778 29.2215 89.7957 29.1387 89.8139 29.0534C89.9993 28.1635 90.1336 27.2674 90.2602 26.3676C90.2854 26.1926 90.3105 26.0176 90.3358 25.8426C90.3878 25.48 90.4394 25.1174 90.4906 24.7547C90.556 24.2918 90.6225 23.829 90.6895 23.3662C90.7414 23.0066 90.7927 22.6469 90.8438 22.2872C90.8681 22.1165 90.8926 21.9458 90.9173 21.7751C90.9516 21.537 90.9852 21.2988 91.0185 21.0606C91.0377 20.9257 91.0568 20.7909 91.0766 20.6519C91.1197 20.2383 91.1244 19.8429 91.1174 19.4275C91.1864 19.4275 91.2553 19.4275 91.3264 19.4275C91.3303 19.3387 91.3342 19.2499 91.3382 19.1583C91.3882 18.2123 91.4759 17.2727 91.5811 16.3311C91.5939 16.2122 91.6066 16.0932 91.6198 15.9707C91.6327 15.8583 91.6457 15.7459 91.659 15.6302C91.6704 15.5296 91.6818 15.429 91.6935 15.3253C91.7795 14.8699 91.7795 14.8699 91.9533 14.6398C92.584 14.2649 93.1918 14.282 93.9118 14.2861C94.0878 14.2856 94.0878 14.2856 94.2673 14.2851C94.5148 14.2849 94.7623 14.2855 95.0098 14.2868C95.3866 14.2885 95.7632 14.2868 96.14 14.2848C96.3812 14.285 96.6224 14.2854 96.8637 14.2861C97.0312 14.2851 97.0312 14.2851 97.2022 14.2841C97.8376 14.29 98.4977 14.3084 99.0588 14.6398C99.6538 15.5701 99.025 17.4297 98.846 18.4603C98.7499 19.0139 98.6562 19.5679 98.5621 20.1219C98.5425 20.2366 98.523 20.3512 98.5029 20.4693C98.3151 21.5743 98.1371 22.6807 97.9609 23.7875C97.4121 27.2334 96.8515 30.6772 96.226 34.1102C96.1866 34.3262 96.1475 34.5423 96.1085 34.7585C95.4444 38.4366 95.4444 38.4366 94.8073 39.938C94.7551 40.0641 94.7551 40.0641 94.7018 40.1928C94.1146 41.5774 93.4289 42.9234 92.4758 44.0947C92.3913 44.2022 92.3069 44.3096 92.2199 44.4203C89.8541 47.3689 86.405 48.9807 82.758 49.7151C82.6761 49.7324 82.5943 49.7497 82.5099 49.7676C81.1426 50.0458 79.7569 50.0638 78.3662 50.0764C78.1557 50.0784 77.9452 50.0811 77.7346 50.0845C77.4355 50.0889 77.1366 50.0895 76.8375 50.0891C76.7469 50.0908 76.6563 50.0925 76.563 50.0942C76.0959 50.089 75.9199 50.0749 75.5458 49.7697C75.4435 49.6396 75.4435 49.6396 75.3391 49.5069C75.3046 49.4726 75.2701 49.4382 75.2346 49.4028C75.1757 48.7586 75.2745 48.1535 75.4175 47.5277C75.436 47.4425 75.4546 47.3573 75.4737 47.2695C75.5324 47.0003 75.5924 46.7314 75.6526 46.4625C75.7126 46.1922 75.7723 45.9217 75.8314 45.6511C75.8681 45.4836 75.9053 45.3162 75.9431 45.149C76.0293 44.7568 76.0929 44.3927 76.0705 43.9906C76.1395 43.9906 76.2085 43.9906 76.2795 43.9906C76.2922 43.9266 76.3048 43.8626 76.3179 43.7967C76.3354 43.7126 76.3529 43.6284 76.3709 43.5418C76.3879 43.4584 76.4049 43.3751 76.4224 43.2893C76.4885 43.0539 76.4885 43.0539 76.6975 42.7416C77.1981 42.5939 77.5396 42.6727 78.0298 42.8262C80.2573 43.4701 82.8147 43.4671 84.9262 42.4294C86.6934 41.3993 87.9005 39.7873 88.4206 37.8161C88.5288 37.3784 88.6237 36.9384 88.7141 36.4968C88.7496 36.3267 88.7496 36.3267 88.7859 36.1532C88.8334 35.9211 88.8794 35.6888 88.9231 35.456C88.8584 35.5075 88.7938 35.559 88.7271 35.6121C88.5051 35.7682 88.5051 35.7682 88.2961 35.7682C88.2961 35.8369 88.2961 35.9056 88.2961 35.9764C86.7411 37.4659 84.7912 38.4161 82.6402 38.4084C81.2788 38.3729 80.2368 37.8981 79.249 36.9651C79.1204 36.822 79.1204 36.822 78.8918 36.4968C78.815 36.3885 78.815 36.3885 78.7367 36.278C76.766 33.2947 77.8897 28.8639 78.3694 25.5731C78.3977 25.3785 78.426 25.1839 78.4543 24.9893C78.4669 24.9025 78.4796 24.8157 78.4927 24.7263C78.6023 23.9296 78.6095 23.1448 78.5783 22.3418C78.6473 22.3074 78.7163 22.2731 78.7873 22.2377C78.8412 22.0353 78.8412 22.0353 78.8653 21.7874C78.8771 21.6914 78.889 21.5953 78.9012 21.4964C78.9132 21.3912 78.9252 21.2861 78.9375 21.1778C78.9572 21.0148 78.9572 21.0148 78.9773 20.8486C79.0194 20.4986 79.0601 20.1485 79.1008 19.7983C79.1282 19.5689 79.1557 19.3395 79.1833 19.1102C79.3362 17.8438 79.3362 17.8438 79.4694 16.5754C79.4779 16.4899 79.4863 16.4045 79.4951 16.3164C79.5102 16.161 79.5244 16.0055 79.5374 15.8498C79.5831 15.3866 79.6895 15.0358 79.9367 14.6398C80.472 14.3302 80.9585 14.2698 81.5694 14.2495C81.7009 14.2441 81.7009 14.2441 81.835 14.2386C82.6743 14.212 83.5125 14.2309 84.3515 14.256Z" fill="#328188"/>
<path d="M48.7066 15.713C50.0507 16.9267 50.7203 18.548 50.8157 20.3385C50.8781 22.3685 50.5248 24.3087 50.1565 26.2967C50.132 26.4292 50.1075 26.5617 50.0822 26.6982C49.9952 27.1662 49.9074 27.6341 49.8186 28.1018C49.6603 28.9419 49.5208 29.784 49.3924 30.6291C49.3744 30.7445 49.3565 30.8599 49.338 30.9788C49.1127 32.2129 49.1127 32.2129 49.425 33.3742C49.598 33.4465 49.7724 33.5154 49.9475 33.5824C50.1282 33.6781 50.3067 33.778 50.483 33.8816C50.5716 33.9329 50.6603 33.9841 50.7516 34.0369C51.0005 34.2126 51.1493 34.3633 51.3059 34.6232C51.2945 35.1456 51.0882 35.4582 50.7834 35.8722C50.7145 35.9752 50.6455 36.0782 50.5744 36.1844C50.5055 36.1844 50.4365 36.1844 50.3655 36.1844C50.3655 36.2531 50.3655 36.3218 50.3655 36.3926C48.906 37.7046 46.9794 38.4605 45.0143 38.3998C44.405 38.3377 43.8845 38.2122 43.3906 37.8432C42.7755 37.0433 42.3711 36.184 42.0061 35.2477C41.6476 35.3996 41.4389 35.5944 41.1767 35.8787C40.3754 36.6898 39.443 37.2732 38.4338 37.7912C38.3352 37.8427 38.3352 37.8427 38.2347 37.8953C36.9344 38.5354 35.1437 38.5886 33.7447 38.2595C32.1869 37.7341 31.2112 36.764 30.4921 35.3304C30.2832 34.8695 30.1786 34.3907 30.094 33.8946C30.0805 33.8212 30.067 33.7478 30.0532 33.6722C29.7482 31.7016 30.2471 29.7394 31.4003 28.1265C33.6601 25.0804 37.4333 24.4043 40.9252 23.6475C41.0302 23.6245 41.1352 23.6015 41.2434 23.5778C41.4369 23.5356 41.6306 23.4942 41.8245 23.4538C42.2928 23.3518 42.647 23.2349 43.051 22.9661C43.12 22.9661 43.1889 22.9661 43.26 22.9661C43.8463 21.8879 44.0407 20.8209 43.6967 19.6315C43.5236 19.3448 43.3721 19.3058 43.051 19.2192C40.874 18.9561 39.1017 20.2498 37.4076 21.4297C37.0001 21.7126 36.5858 21.9837 36.1676 22.2506C36.106 22.2899 36.0445 22.3293 35.981 22.3699C35.4761 22.6907 35.2011 22.8201 34.5871 22.758C34.0995 22.4047 33.9085 21.969 33.7512 21.4049C33.7297 21.3298 33.7081 21.2546 33.6859 21.1772C33.5276 20.494 33.5172 19.8066 33.5096 19.1086C33.5077 19.0127 33.5059 18.9167 33.504 18.8179C33.5048 18.0248 33.5955 17.2282 34.09 16.5777C34.4082 16.2765 34.7291 16.0789 35.1227 15.8951C35.2316 15.8429 35.2316 15.8429 35.3428 15.7897C39.2302 13.9715 45.0947 12.6985 48.7066 15.713ZM38.895 29.0109C38.1484 29.6497 37.3678 30.4761 37.2762 31.4979C37.277 31.6571 37.277 31.6571 37.2778 31.8195C37.2773 31.9259 37.2767 32.0323 37.2762 32.1419C37.3039 32.4374 37.3482 32.6086 37.5129 32.8538C37.7662 32.9755 37.7662 32.9755 38.0354 33.062C38.1388 33.1307 38.2423 33.1994 38.3489 33.2701C39.0959 33.3857 39.6856 33.2144 40.3342 32.8538C40.3995 32.8177 40.4649 32.7816 40.5322 32.7444C40.7262 32.6322 40.7262 32.6322 40.9612 32.4375C41.0829 32.3684 41.0829 32.3684 41.0829 32.2368C41.0829 32.2368 41.0819 32.1121 41.144 32.1053C41.7204 31.899 42.0811 31.1292 42.3547 30.6128C42.6663 29.8941 42.9923 28.9405 42.7375 28.1702C41.254 27.8401 40.1263 28.092 38.895 29.0109Z" fill="#328188"/>
<path d="M72.0681 14.5483C72.185 14.5533 72.3019 14.5583 72.4223 14.5635C72.6084 14.5722 72.6084 14.5722 72.7984 14.5812C73.6157 14.6166 74.4293 14.6464 75.2474 14.6332C75.8489 14.6303 76.4389 14.6571 77.0368 14.7178C77.1104 14.7242 77.184 14.7307 77.2597 14.7373C77.7439 14.7937 78.0263 14.9189 78.3691 15.2642C78.5064 15.6575 78.4961 15.8316 78.343 16.2205C78.19 16.4654 78.0528 16.6295 77.8466 16.8254C77.8122 16.9285 77.7777 17.0315 77.7422 17.1377C77.5688 17.243 77.3944 17.3468 77.2197 17.4499C77.0143 17.6364 76.8177 17.8235 76.6229 18.0203C76.5674 18.0757 76.5119 18.131 76.4547 18.188C76.3377 18.3049 76.2209 18.4221 76.1044 18.5394C75.9284 18.7166 75.7517 18.8929 75.5748 19.0691C75.047 19.5965 74.5286 20.1262 74.0428 20.6927C73.6659 21.1262 73.263 21.537 72.8667 21.9529C72.5863 22.2487 72.3165 22.5398 72.0649 22.8609C72.0074 22.93 71.9498 22.9991 71.8906 23.0703C71.8216 23.0703 71.7527 23.0703 71.6816 23.0703C71.6542 23.1312 71.6267 23.1922 71.5984 23.255C71.4664 23.498 71.324 23.6642 71.1314 23.8623C71.0306 23.9673 71.0306 23.9673 70.9277 24.0745C70.8575 24.1467 70.7874 24.2189 70.7151 24.2933C69.7434 25.1803 69.7434 25.1803 69.2473 26.3236C69.4517 26.9111 69.7643 27.4196 70.0881 27.9491C70.2183 28.1656 70.3483 28.3822 70.4783 28.5988C70.5409 28.7022 70.6034 28.8056 70.6679 28.9121C70.8743 29.2591 71.0693 29.6113 71.2601 29.9669C71.3684 30.1652 71.3684 30.1652 71.5771 30.356C71.6829 30.5383 71.7848 30.7229 71.8841 30.9089C72.2417 31.6139 72.2417 31.6139 72.7265 32.2294C72.8378 32.3992 72.9462 32.5708 73.0531 32.7433C73.597 33.5995 74.1683 34.4008 74.8621 35.1437C74.9104 35.1955 74.9587 35.2473 75.0084 35.3007C75.0566 35.3523 75.1047 35.404 75.1543 35.4572C75.4355 35.7592 75.7139 36.0624 75.9854 36.3732C76.0623 36.4597 76.1392 36.5462 76.2184 36.6354C76.433 36.9958 76.4343 37.2294 76.3838 37.6416C75.9598 38.0831 75.6477 38.2513 75.0482 38.28C74.9366 38.2804 74.825 38.2808 74.7099 38.2812C74.583 38.2819 74.456 38.2826 74.3252 38.2833C74.1882 38.2834 74.0513 38.2835 73.9102 38.2836C73.7676 38.2839 73.6249 38.2843 73.4823 38.2847C73.1833 38.2853 72.8843 38.2855 72.5853 38.2854C72.204 38.2854 71.8227 38.2868 71.4414 38.2886C71.1466 38.2898 70.8519 38.29 70.5571 38.2899C70.3488 38.2901 70.1404 38.2912 69.9321 38.2924C68.9844 38.29 68.1573 38.2734 67.3974 37.6416C67.1762 37.3123 67.1762 37.3123 66.9925 36.9521C66.9303 36.8327 66.8681 36.7133 66.8039 36.5903C66.666 36.2886 66.666 36.2886 66.666 36.0804C66.597 36.0461 66.5281 36.0117 66.457 35.9763C66.3737 35.8017 66.299 35.623 66.2284 35.4429C66.0226 34.9344 65.8036 34.436 65.5688 33.9403C65.5379 33.8748 65.5069 33.8094 65.475 33.742C65.4138 33.6125 65.3525 33.483 65.2912 33.3535C65.0833 32.9114 64.8822 32.4662 64.6806 32.0213C64.6117 32.0213 64.5427 32.0213 64.4716 32.0213C64.4372 31.9526 64.4027 31.8839 64.3672 31.8131C64.3038 31.8951 64.2405 31.9771 64.1753 32.0615C64.1336 32.1156 64.0918 32.1696 64.0488 32.2253C63.9547 32.3471 63.8607 32.469 63.7667 32.591C63.5336 32.8932 63.3 33.1949 63.0643 33.4951C62.2628 34.5202 61.482 35.5684 60.7801 36.6643C60.7096 36.7743 60.639 36.8843 60.5663 36.9976C60.4778 37.1403 60.4778 37.1403 60.3875 37.2859C60.0831 37.6689 59.7992 37.9146 59.3118 37.9949C59.0087 38.0138 58.7079 38.0197 58.4042 38.021C58.2923 38.0229 58.1804 38.0249 58.0652 38.0269C57.8287 38.0307 57.5922 38.0336 57.3556 38.0355C56.9977 38.0384 56.6398 38.0442 56.2819 38.0504C53.1049 38.0994 53.1049 38.0994 52.455 37.6416C52.2902 37.3133 52.2544 37.0549 52.3506 36.7049C52.9109 35.8787 53.7637 35.2104 54.4975 34.5399C54.9135 34.1585 55.319 33.7741 55.6747 33.3353C55.9666 32.9909 56.2891 32.704 56.6331 32.4124C56.9639 32.125 57.268 31.8129 57.5752 31.5009C57.6678 31.4107 57.7605 31.3205 57.856 31.2276C58.1005 30.9856 58.1005 30.9856 58.3066 30.7203C58.579 30.3811 58.8853 30.0845 59.2009 29.7851C59.7537 29.251 60.2307 28.6657 60.7099 28.0662C60.8085 27.9474 60.9071 27.8287 61.0059 27.71C61.1032 27.5903 61.2005 27.4705 61.2977 27.3506C61.3683 27.2671 61.3683 27.2671 61.4403 27.1819C61.633 26.9401 61.7537 26.7769 61.7593 26.4631C61.6065 26.0839 61.4121 25.7416 61.1997 25.3926C61.1589 25.3222 61.118 25.2519 61.0759 25.1794C60.8444 24.7952 60.7002 24.62 60.292 24.4234C60.2765 24.3455 60.2611 24.2677 60.2452 24.1876C60.1451 23.6944 59.843 23.3073 59.5736 22.8882C59.5169 22.7971 59.4602 22.706 59.4017 22.6121C59.3466 22.5256 59.2916 22.439 59.2348 22.3499C59.1846 22.2709 59.1343 22.1919 59.0826 22.1105C58.9368 21.8951 59.0797 21.9945 58.7838 21.8421C58.7764 21.7705 58.6053 21.678 58.5976 21.6042C58.4915 21.212 58.2799 20.9313 58.0388 20.6114C57.9919 20.5476 57.9449 20.4839 57.8965 20.4182C57.8006 20.2882 57.7044 20.1585 57.6079 20.029C57.4129 19.7658 57.2236 19.4987 57.0331 19.2323C56.4405 18.3381 56.4405 18.3381 55.5898 17.7622C55.3938 17.5683 55.2219 17.3602 55.0449 17.1491C54.8678 16.9341 54.8678 16.9341 54.6947 16.7685C54.3967 16.4675 54.2973 16.2351 54.2771 15.8237C54.2963 15.4905 54.323 15.3861 54.5253 15.1081C54.9516 14.8169 55.3625 14.828 55.8604 14.8186C55.9379 14.8167 56.0153 14.8148 56.095 14.8128C56.3424 14.8067 56.5898 14.8012 56.8372 14.7959C57.1625 14.7888 57.4878 14.7811 57.8131 14.7731C57.8877 14.7717 57.9623 14.7703 58.0391 14.7688C58.3878 14.7602 58.7026 14.7342 59.0381 14.6397C59.247 14.6357 59.4561 14.635 59.665 14.6397C59.665 14.7084 59.665 14.7771 59.665 14.8479C59.7685 14.7792 59.8719 14.7105 59.9785 14.6397C60.1964 14.6158 60.1964 14.6158 60.4356 14.6202C60.514 14.6209 60.5924 14.6216 60.6732 14.6223C60.9189 14.6397 60.9189 14.6397 61.1659 14.6938C61.5016 14.7547 61.8124 14.742 62.1532 14.7308C63.2954 14.7308 63.2954 14.7308 63.7402 15.0561C64.3553 15.6952 64.7154 16.5487 65.0965 17.3386C65.1345 17.4172 65.1725 17.4958 65.2117 17.5768C65.2453 17.6475 65.279 17.7183 65.3136 17.7912C65.4116 17.9893 65.4116 17.9893 65.6211 18.1785C65.682 18.3044 65.7379 18.4328 65.7909 18.5623C65.9944 19.0314 66.2241 19.4832 66.4635 19.9349C66.4991 20.003 66.5347 20.0711 66.5713 20.1413C66.7471 20.4701 66.9165 20.7344 67.1884 20.9887C67.23 20.9073 67.23 20.9073 67.2724 20.8244C67.9819 19.4417 68.7426 18.0991 69.5456 16.7683C69.7368 16.4445 69.9169 16.1153 70.0944 15.7839C70.3427 15.3696 70.7706 14.7409 71.2395 14.5739C71.5225 14.5275 71.7815 14.5348 72.0681 14.5483Z" fill="#328188"/>
</svg>
